<svg width="70" height="71" viewBox="0 0 70 71" fill="none" xmlns="http://www.w3.org/2000/svg">
<path d="M35 70.171C54.33 70.171 70 54.4627 70 35.0855C70 15.7083 54.33 0 35 0C15.67 0 0 15.7083 0 35.0855C0 54.4627 15.67 70.171 35 70.171Z" fill="#C4BAAB"/>
<path d="M46.3815 33.786C42.8037 33.786 39.9 30.8752 39.9 27.2887C39.9 23.7022 42.8037 20.7914 46.3815 20.7914C49.9593 20.7914 52.863 23.7022 52.863 27.2887C52.863 30.8752 49.9463 33.786 46.3815 33.786ZM46.3815 22.0908C43.5167 22.0908 41.1963 24.4169 41.1963 27.2887C41.1963 30.1605 43.5167 32.4866 46.3815 32.4866C49.2463 32.4866 51.5667 30.1605 51.5667 27.2887C51.5667 24.4169 49.2334 22.0908 46.3815 22.0908Z" fill="white" fill-opacity="0.3"/>
<path d="M32.7055 51.3288H31.4092V23.3903H16.5018V22.0909H32.7055V51.3288Z" fill="white"/>
</svg>
