<svg width="330" height="214" viewBox="0 0 330 214" fill="none" xmlns="http://www.w3.org/2000/svg">
<path d="M164.991 97.7057C191.906 97.7057 213.725 75.8335 213.725 48.8529C213.725 21.8722 191.906 0 164.991 0C138.076 0 116.257 21.8722 116.257 48.8529C116.257 75.8335 138.076 97.7057 164.991 97.7057Z" fill="#C4BAAB"/>
<path d="M180.838 47.0435C175.857 47.0435 171.814 42.9905 171.814 37.9967C171.814 33.0028 175.857 28.9498 180.838 28.9498C185.82 28.9498 189.863 33.0028 189.863 37.9967C189.863 42.9905 185.802 47.0435 180.838 47.0435ZM180.838 30.7592C176.85 30.7592 173.619 33.998 173.619 37.9967C173.619 41.9954 176.85 45.2341 180.838 45.2341C184.827 45.2341 188.058 41.9954 188.058 37.9967C188.058 33.998 184.809 30.7592 180.838 30.7592Z" fill="white" fill-opacity="0.3"/>
<path d="M161.796 71.4699H159.991V32.5686H139.234V30.7592H161.796V71.4699Z" fill="white"/>
<path d="M0 136.625H22.8327V142.071H14.4757V168.361H8.35694V142.053H0V136.625Z" fill="black"/>
<path d="M26.7855 164.091C23.6991 160.943 22.1468 157.089 22.1468 152.493C22.1468 147.898 23.6991 144.025 26.7855 140.895C29.872 137.747 33.8248 136.173 38.6621 136.173C43.4814 136.173 47.4342 137.747 50.5207 140.895C53.6072 144.044 55.1594 147.898 55.1594 152.493C55.1594 157.089 53.6072 160.961 50.5207 164.091C47.4342 167.24 43.4814 168.796 38.6621 168.796C33.8248 168.796 29.872 167.222 26.7855 164.091ZM31.2438 144.785C29.2583 146.902 28.2656 149.472 28.2656 152.493C28.2656 155.515 29.2583 158.084 31.2438 160.201C33.2292 162.318 35.702 163.368 38.6621 163.368C41.6223 163.368 44.095 162.318 46.0805 160.201C48.0659 158.084 49.0587 155.515 49.0587 152.493C49.0587 149.472 48.0659 146.902 46.0805 144.785C44.095 142.668 41.6223 141.619 38.6621 141.619C35.702 141.601 33.2292 142.668 31.2438 144.785Z" fill="black"/>
<path d="M79.2014 168.343L65.3213 152.747V168.343H59.2206V136.625H65.3213V149.309L77.3062 136.625H85.3563L71.4401 151.118L87.0349 168.343H79.2014Z" fill="black"/>
<path d="M94.706 168.343H88.3345L101.89 136.625H106.186L119.741 168.343H113.369L110.391 161.323H97.6842L94.706 168.343ZM104.02 146.504L99.9945 155.895H108.045L104.02 146.504Z" fill="black"/>
<path d="M129.885 154.303H127.665V168.343H121.564V136.625H133.097C135.985 136.625 138.296 137.403 140.01 138.977C141.888 140.769 142.808 142.922 142.808 145.455C142.808 147.988 141.87 150.159 140.01 151.932C139.108 152.783 138.043 153.398 136.852 153.796L148.692 168.343H141.148L129.885 154.303ZM127.665 148.856H132.736C134.216 148.856 135.245 148.531 135.805 147.898C136.4 147.228 136.707 146.432 136.707 145.491C136.707 144.532 136.4 143.7 135.805 143.048C135.209 142.379 134.18 142.053 132.736 142.053H127.665V148.856Z" fill="black"/>
<path d="M167.013 136.625H189.845V142.071H181.488V168.361H175.388V142.053H167.031V136.625H167.013Z" fill="black"/>
<path d="M192.823 168.343H186.452L200.007 136.625H204.303L217.858 168.343H211.487L208.508 161.323H195.802L192.823 168.343ZM202.137 146.504L198.112 155.895H206.162L202.137 146.504Z" fill="black"/>
<path d="M215.385 136.625H238.218V142.071H229.861V168.361H223.76V142.053H215.403V136.625H215.385Z" fill="black"/>
<path d="M237.767 136.625H260.599V142.071H252.242V168.361H246.142V142.053H237.785V136.625H237.767Z" fill="black"/>
<path d="M265.906 164.091C262.82 160.943 261.267 157.089 261.267 152.493C261.267 147.898 262.82 144.025 265.906 140.895C268.993 137.747 272.945 136.173 277.783 136.173C282.602 136.173 286.555 137.747 289.641 140.895C292.728 144.044 294.28 147.898 294.28 152.493C294.28 157.089 292.728 160.961 289.641 164.091C286.555 167.24 282.602 168.796 277.783 168.796C272.963 168.796 269.011 167.222 265.906 164.091ZM270.364 144.785C268.379 146.902 267.386 149.472 267.386 152.493C267.386 155.515 268.379 158.084 270.364 160.201C272.35 162.318 274.823 163.368 277.783 163.368C280.743 163.368 283.216 162.318 285.201 160.201C287.186 158.084 288.179 155.515 288.179 152.493C288.179 149.472 287.186 146.902 285.201 144.785C283.216 142.668 280.743 141.619 277.783 141.619C274.823 141.601 272.35 142.668 270.364 144.785Z" fill="black"/>
<path d="M301.626 164.091C298.54 160.943 296.987 157.089 296.987 152.493C296.987 147.898 298.54 144.025 301.626 140.895C304.713 137.747 308.665 136.173 313.503 136.173C318.322 136.173 322.275 137.747 325.361 140.895C328.448 144.044 330 147.898 330 152.493C330 157.089 328.448 160.961 325.361 164.091C322.275 167.24 318.322 168.796 313.503 168.796C308.665 168.796 304.713 167.222 301.626 164.091ZM306.084 144.785C304.099 146.902 303.106 149.472 303.106 152.493C303.106 155.515 304.099 158.084 306.084 160.201C308.07 162.318 310.543 163.368 313.503 163.368C316.463 163.368 318.936 162.318 320.921 160.201C322.907 158.084 323.899 155.515 323.899 152.493C323.899 149.472 322.907 146.902 320.921 144.785C318.936 142.668 316.463 141.619 313.503 141.619C310.543 141.601 308.07 142.668 306.084 144.785Z" fill="black"/>
<path d="M52.795 201.437C53.7335 202.215 54.2028 203.3 54.2028 204.675C54.2028 206.05 53.7335 207.136 52.795 207.914C51.8564 208.692 50.5749 209.09 48.9324 209.09H45.8098V212.926H44.0048V200.26H48.9324C50.5568 200.26 51.8564 200.659 52.795 201.437ZM51.4954 206.792C52.091 206.304 52.3979 205.598 52.3979 204.675C52.3979 203.753 52.091 203.047 51.4954 202.558C50.8998 202.07 50.0153 201.835 48.8782 201.835H45.8098V207.516H48.8782C50.0153 207.516 50.8817 207.281 51.4954 206.792Z" fill="#B7B3AB"/>
<path d="M67.8303 211.352V212.926H58.6611V200.26H67.5776V201.835H60.466V205.725H66.7834V207.263H60.466V211.352H67.8303Z" fill="#B7B3AB"/>
<path d="M80.9884 212.926L78.2629 209.036C77.92 209.054 77.6673 209.072 77.4687 209.072H74.3462V212.926H72.5412V200.26H77.4687C79.1112 200.26 80.3928 200.659 81.3313 201.437C82.2699 202.215 82.7392 203.3 82.7392 204.675C82.7392 205.652 82.5045 206.485 82.0172 207.172C81.5299 207.86 80.844 208.366 79.9596 208.674L82.9558 212.926H80.9884ZM80.0318 206.792C80.6274 206.304 80.9342 205.598 80.9342 204.675C80.9342 203.753 80.6274 203.047 80.0318 202.558C79.4361 202.07 78.5517 201.835 77.4146 201.835H74.3462V207.534H77.4146C78.5697 207.534 79.4361 207.299 80.0318 206.792Z" fill="#B7B3AB"/>
<path d="M99.2004 212.926L99.1823 203.698L94.6158 211.388H93.7855L89.219 203.753V212.926H87.4862V200.26H88.9663L94.2367 209.163L99.435 200.26H100.915L100.933 212.926H99.2004Z" fill="#B7B3AB"/>
<path d="M114.561 209.76H107.846L106.456 212.926H104.597L110.319 200.26H112.106L117.846 212.926H115.95L114.561 209.76ZM113.929 208.312L111.203 202.106L108.478 208.312H113.929Z" fill="#B7B3AB"/>
<path d="M132.393 200.26V212.926H130.913L123.333 203.481V212.926H121.528V200.26H123.008L130.589 209.705V200.26H132.393Z" fill="#B7B3AB"/>
<path d="M147.158 211.352V212.926H137.989V200.26H146.905V201.835H139.794V205.725H146.129V207.263H139.794V211.352H147.158Z" fill="#B7B3AB"/>
<path d="M162.753 200.26V212.926H161.273L153.692 203.481V212.926H151.887V200.26H153.367L160.948 209.705V200.26H162.753Z" fill="#B7B3AB"/>
<path d="M170.857 201.835H166.525V200.26H176.976V201.835H172.644V212.926H170.857V201.835Z" fill="#B7B3AB"/>
<path d="M199.141 212.926L199.123 203.698L194.556 211.388H193.726L189.159 203.753V212.926H187.427V200.26H188.907L194.177 209.163L199.375 200.26H200.855L200.874 212.926H199.141Z" fill="#B7B3AB"/>
<path d="M214.501 209.76H207.787L206.397 212.926H204.538L210.259 200.26H212.046L217.786 212.926H215.891L214.501 209.76ZM213.887 208.312L211.162 202.106L208.436 208.312H213.887Z" fill="#B7B3AB"/>
<path d="M225.601 207.299L223.291 209.651V212.926H221.486V200.26H223.291V207.335L230.15 200.26H232.208L226.811 205.96L232.551 212.926H230.439L225.601 207.299Z" fill="#B7B3AB"/>
<path d="M245.42 211.352V212.926H236.251V200.26H245.167V201.835H238.056V205.725H244.391V207.263H238.056V211.352H245.42Z" fill="#B7B3AB"/>
<path d="M250.907 205.779H255.762V207.281H250.907V205.779Z" fill="#B7B3AB"/>
<path d="M261.267 211.623C260.329 210.664 259.859 209.271 259.859 207.462V200.26H261.664V207.389C261.664 210.103 262.856 211.461 265.22 211.461C266.375 211.461 267.26 211.117 267.873 210.447C268.487 209.778 268.794 208.765 268.794 207.389V200.26H270.545V207.462C270.545 209.289 270.076 210.664 269.137 211.641C268.198 212.6 266.881 213.071 265.202 213.071C263.523 213.071 262.188 212.6 261.267 211.623Z" fill="#B7B3AB"/>
<path d="M283.739 201.437C284.678 202.215 285.147 203.3 285.147 204.675C285.147 206.05 284.678 207.136 283.739 207.914C282.8 208.692 281.519 209.09 279.876 209.09H276.754V212.926H274.949V200.26H279.876C281.519 200.26 282.8 200.659 283.739 201.437ZM282.439 206.792C283.035 206.304 283.342 205.598 283.342 204.675C283.342 203.753 283.035 203.047 282.439 202.558C281.844 202.07 280.959 201.835 279.822 201.835H276.754V207.516H279.822C280.977 207.516 281.844 207.281 282.439 206.792Z" fill="#B7B3AB"/>
</svg>
