<svg width="216" height="50" viewBox="0 0 216 50" fill="none" xmlns="http://www.w3.org/2000/svg">
<g clip-path="url(#clip0)">
<path d="M25 50C38.8071 50 50 38.8071 50 25C50 11.1929 38.8071 0 25 0C11.1929 0 0 11.1929 0 25C0 38.8071 11.1929 50 25 50Z" fill="#C4BAAB"/>
<g opacity="0.8">
<path opacity="0.4" d="M33.1204 24.0741C30.5648 24.0741 28.4907 22 28.4907 19.4445C28.4907 16.8889 30.5648 14.8148 33.1204 14.8148C35.6759 14.8148 37.75 16.8889 37.75 19.4445C37.75 22 35.6759 24.0741 33.1204 24.0741ZM33.1204 15.7407C31.0741 15.7407 29.4166 17.3982 29.4166 19.4445C29.4166 21.4907 31.0741 23.1482 33.1204 23.1482C35.1666 23.1482 36.8241 21.4907 36.8241 19.4445C36.8241 17.3982 35.1666 15.7407 33.1204 15.7407Z" fill="white"/>
</g>
<path d="M23.3612 36.5741H22.4353V16.6666H11.7871V15.7407H23.3612V36.5741Z" fill="white"/>
<path d="M67.2129 17.8796H77.4814V20.3241H73.7221V32.1204H70.9721V20.3241H67.2129V17.8796Z" fill="black"/>
<path d="M79.2591 30.2037C77.8702 28.7963 77.1758 27.0556 77.1758 25C77.1758 22.9444 77.8702 21.2037 79.2591 19.7963C80.648 18.3889 82.4258 17.6852 84.6017 17.6852C86.7684 17.6852 88.5462 18.3889 89.9443 19.7963C91.3332 21.2037 92.0276 22.9444 92.0276 25C92.0276 27.0556 91.3332 28.7963 89.9443 30.2037C88.5554 31.6111 86.7776 32.3148 84.6017 32.3148C82.4258 32.3241 80.648 31.6204 79.2591 30.2037ZM81.2591 21.5463C80.361 22.5 79.9165 23.6481 79.9165 25C79.9165 26.3518 80.361 27.5093 81.2591 28.4537C82.1573 29.4074 83.2684 29.8796 84.5924 29.8796C85.9165 29.8796 87.0369 29.4074 87.9258 28.4537C88.8239 27.5093 89.2684 26.3518 89.2684 25C89.2684 23.6481 88.8239 22.4907 87.9258 21.5463C87.0276 20.5926 85.9165 20.1204 84.5924 20.1204C83.2684 20.1204 82.1573 20.5926 81.2591 21.5463Z" fill="black"/>
<path d="M102.843 32.1204L96.6018 25.1204V32.1204H93.8518V17.8796H96.6018V23.5741L101.991 17.8796H105.611L99.3426 24.3889L106.361 32.1204H102.843Z" fill="black"/>
<path d="M109.815 32.1204H106.944L113.046 17.8796H114.981L121.083 32.1204H118.213L116.87 28.9722H111.157L109.815 32.1204ZM114.009 22.3148L112.204 26.5278H115.824L114.009 22.3148Z" fill="black"/>
<path d="M125.639 25.8148H124.639V32.1204H121.889V17.8796H127.074C128.38 17.8796 129.417 18.2315 130.185 18.9352C131.028 19.7315 131.444 20.7037 131.444 21.8426C131.444 22.9815 131.028 23.9537 130.185 24.75C129.778 25.1296 129.306 25.4074 128.759 25.5833L134.083 32.1111H130.685L125.639 25.8148ZM124.639 23.3704H126.917C127.583 23.3704 128.046 23.2315 128.296 22.9445C128.565 22.6482 128.704 22.287 128.704 21.8704C128.704 21.4352 128.565 21.0741 128.296 20.7685C128.028 20.4722 127.565 20.3241 126.917 20.3241H124.639V23.3704Z" fill="black"/>
<path d="M142.343 17.8796H152.611V20.3241H148.852V32.1204H146.102V20.3241H142.343V17.8796Z" fill="black"/>
<path d="M153.954 32.1204H151.083L157.185 17.8796H159.12L165.222 32.1204H162.352L161.009 28.9722H155.296L153.954 32.1204ZM158.148 22.3148L156.343 26.5278H159.963L158.148 22.3148Z" fill="black"/>
<path d="M164.102 17.8796H174.37V20.3241H170.611V32.1204H167.861V20.3241H164.102V17.8796Z" fill="black"/>
<path d="M174.167 17.8796H184.435V20.3241H180.676V32.1204H177.926V20.3241H174.167V17.8796Z" fill="black"/>
<path d="M186.833 30.2037C185.444 28.7963 184.75 27.0556 184.75 25C184.75 22.9444 185.444 21.2037 186.833 19.7963C188.222 18.3889 190 17.6852 192.176 17.6852C194.343 17.6852 196.12 18.3889 197.519 19.7963C198.907 21.2037 199.602 22.9444 199.602 25C199.602 27.0556 198.907 28.7963 197.519 30.2037C196.13 31.6111 194.352 32.3148 192.176 32.3148C190 32.3241 188.222 31.6204 186.833 30.2037ZM188.833 21.5463C187.935 22.5 187.491 23.6481 187.491 25C187.491 26.3518 187.935 27.5093 188.833 28.4537C189.731 29.4074 190.843 29.8796 192.167 29.8796C193.491 29.8796 194.611 29.4074 195.5 28.4537C196.398 27.5093 196.843 26.3518 196.843 25C196.843 23.6481 196.398 22.4907 195.5 21.5463C194.602 20.5926 193.491 20.1204 192.167 20.1204C190.843 20.1204 189.731 20.5926 188.833 21.5463Z" fill="black"/>
<path d="M202.898 30.2037C201.509 28.7963 200.815 27.0556 200.815 25C200.815 22.9444 201.509 21.2037 202.898 19.7963C204.287 18.3889 206.065 17.6852 208.241 17.6852C210.407 17.6852 212.185 18.3889 213.583 19.7963C214.972 21.2037 215.667 22.9444 215.667 25C215.667 27.0556 214.972 28.7963 213.583 30.2037C212.194 31.6111 210.417 32.3148 208.241 32.3148C206.065 32.3241 204.287 31.6204 202.898 30.2037ZM204.898 21.5463C204 22.5 203.555 23.6481 203.555 25C203.555 26.3518 204 27.5093 204.898 28.4537C205.796 29.4074 206.907 29.8796 208.231 29.8796C209.555 29.8796 210.676 29.4074 211.565 28.4537C212.463 27.5093 212.907 26.3518 212.907 25C212.907 23.6481 212.463 22.4907 211.565 21.5463C210.667 20.5926 209.555 20.1204 208.231 20.1204C206.907 20.1204 205.796 20.5926 204.898 21.5463Z" fill="black"/>
</g>
<defs>
<clipPath id="clip0">
<rect width="215.657" height="50" fill="white"/>
</clipPath>
</defs>
</svg>
