<svg width="280" height="65" viewBox="0 0 280 65" fill="none" xmlns="http://www.w3.org/2000/svg">
<g clip-path="url(#clip0)">
<path d="M32.4589 64.9178C50.3854 64.9178 64.9178 50.3854 64.9178 32.4589C64.9178 14.5323 50.3854 0 32.4589 0C14.5323 0 0 14.5323 0 32.4589C0 50.3854 14.5323 64.9178 32.4589 64.9178Z" fill="#C4BAAB"/>
<g opacity="10">
<g opacity="0.4">
<path opacity="0.4" d="M43.0019 31.2567C39.6839 31.2567 36.991 28.5638 36.991 25.2458C36.991 21.9278 39.6839 19.2349 43.0019 19.2349C46.3199 19.2349 49.0128 21.9278 49.0128 25.2458C49.0128 28.5638 46.3199 31.2567 43.0019 31.2567ZM43.0019 20.4371C40.3451 20.4371 38.1931 22.589 38.1931 25.2458C38.1931 27.9026 40.3451 30.0545 43.0019 30.0545C45.6587 30.0545 47.8106 27.9026 47.8106 25.2458C47.8106 22.589 45.6587 20.4371 43.0019 20.4371Z" fill="white" fill-opacity="0.3"/>
</g>
</g>
<path d="M30.331 47.4862H29.1288V21.6393H15.3037V20.4371H30.331V47.4862Z" fill="white"/>
<path d="M87.2664 23.2141H100.599V26.3879H95.7177V41.7037H92.1472V26.3879H87.2664V23.2141Z" fill="black"/>
<path d="M102.907 39.2152C101.104 37.3878 100.202 35.1277 100.202 32.4589C100.202 29.7901 101.104 27.53 102.907 25.7026C104.71 23.8753 107.018 22.9617 109.843 22.9617C112.657 22.9617 114.965 23.8753 116.78 25.7026C118.583 27.53 119.485 29.7901 119.485 32.4589C119.485 35.1277 118.583 37.3878 116.78 39.2152C114.977 41.0425 112.669 41.9561 109.843 41.9561C107.018 41.9682 104.71 41.0545 102.907 39.2152ZM105.504 27.9748C104.337 29.213 103.76 30.7037 103.76 32.4589C103.76 34.2141 104.337 35.7168 105.504 36.943C106.67 38.1813 108.112 38.7944 109.831 38.7944C111.551 38.7944 113.005 38.1813 114.159 36.943C115.325 35.7168 115.902 34.2141 115.902 32.4589C115.902 30.7037 115.325 29.201 114.159 27.9748C112.993 26.7365 111.551 26.1234 109.831 26.1234C108.112 26.1234 106.67 26.7365 105.504 27.9748Z" fill="black"/>
<path d="M133.526 41.7037L125.423 32.6152V41.7037H121.853V23.2141H125.423V30.6076L132.42 23.2141H137.121L128.982 31.6655L138.094 41.7037H133.526Z" fill="black"/>
<path d="M142.579 41.7037H138.852L146.774 23.2141H149.287L157.209 41.7037H153.483L151.739 37.6163H144.322L142.579 41.7037ZM148.025 28.9726L145.68 34.4425H150.381L148.025 28.9726Z" fill="black"/>
<path d="M163.124 33.5168H161.826V41.7037H158.255V23.2141H164.987C166.682 23.2141 168.029 23.671 169.027 24.5846C170.121 25.6185 170.662 26.8808 170.662 28.3595C170.662 29.8382 170.121 31.1004 169.027 32.1343C168.498 32.6272 167.885 32.9879 167.175 33.2163L174.088 41.6917H169.676L163.124 33.5168ZM161.826 30.3431H164.783C165.649 30.3431 166.25 30.1627 166.574 29.7901C166.923 29.4054 167.103 28.9365 167.103 28.3955C167.103 27.8305 166.923 27.3617 166.574 26.9649C166.226 26.5802 165.625 26.3879 164.783 26.3879H161.826V30.3431Z" fill="black"/>
<path d="M184.811 23.2141H198.143V26.3879H193.263V41.7037H189.692V26.3879H184.811V23.2141Z" fill="black"/>
<path d="M199.887 41.7037H196.16L204.082 23.2141H206.595L214.517 41.7037H210.79L209.047 37.6163H201.63L199.887 41.7037ZM205.333 28.9726L202.988 34.4425H207.689L205.333 28.9726Z" fill="black"/>
<path d="M213.062 23.2141H226.395V26.3879H221.514V41.7037H217.943V26.3879H213.062V23.2141Z" fill="black"/>
<path d="M226.13 23.2141H239.463V26.3879H234.582V41.7037H231.011V26.3879H226.13V23.2141Z" fill="black"/>
<path d="M242.576 39.2152C240.773 37.3878 239.871 35.1277 239.871 32.4589C239.871 29.7901 240.773 27.53 242.576 25.7026C244.38 23.8753 246.688 22.9617 249.513 22.9617C252.326 22.9617 254.634 23.8753 256.449 25.7026C258.253 27.53 259.154 29.7901 259.154 32.4589C259.154 35.1277 258.253 37.3878 256.449 39.2152C254.646 41.0425 252.338 41.9561 249.513 41.9561C246.688 41.9682 244.38 41.0545 242.576 39.2152ZM245.173 27.9748C244.007 29.213 243.43 30.7037 243.43 32.4589C243.43 34.2141 244.007 35.7168 245.173 36.943C246.339 38.1813 247.782 38.7944 249.501 38.7944C251.22 38.7944 252.675 38.1813 253.829 36.943C254.995 35.7168 255.572 34.2141 255.572 32.4589C255.572 30.7037 254.995 29.201 253.829 27.9748C252.663 26.7365 251.22 26.1234 249.501 26.1234C247.782 26.1234 246.339 26.7365 245.173 27.9748Z" fill="black"/>
<path d="M263.434 39.2152C261.631 37.3878 260.729 35.1277 260.729 32.4589C260.729 29.7901 261.631 27.53 263.434 25.7026C265.237 23.8753 267.545 22.9617 270.371 22.9617C273.184 22.9617 275.492 23.8753 277.307 25.7026C279.11 27.53 280.012 29.7901 280.012 32.4589C280.012 35.1277 279.11 37.3878 277.307 39.2152C275.504 41.0425 273.196 41.9561 270.371 41.9561C267.545 41.9682 265.237 41.0545 263.434 39.2152ZM266.031 27.9748C264.865 29.213 264.287 30.7037 264.287 32.4589C264.287 34.2141 264.865 35.7168 266.031 36.943C267.197 38.1813 268.639 38.7944 270.359 38.7944C272.078 38.7944 273.532 38.1813 274.686 36.943C275.853 35.7168 276.43 34.2141 276.43 32.4589C276.43 30.7037 275.853 29.201 274.686 27.9748C273.52 26.7365 272.078 26.1234 270.359 26.1234C268.639 26.1234 267.197 26.7365 266.031 27.9748Z" fill="black"/>
</g>
<defs>
<clipPath id="clip0">
<rect width="280" height="64.9178" fill="white"/>
</clipPath>
</defs>
</svg>
