<svg width="40" height="30" viewBox="0 0 40 30" fill="none" xmlns="http://www.w3.org/2000/svg">
<path d="M38.0462 0.570092L39.3016 3.28241C37.527 4.09601 35.9089 5.61321 34.671 7.30589C33.3193 9.15418 32.3694 11.2823 32.1762 13.0662L32.1249 13.5399L32.5956 13.6139C36.508 14.2296 39.5 17.615 39.5 21.7017C39.5 26.666 35.4845 29.5 31.335 29.5C26.5858 29.5 22.1667 25.8818 22.1667 19.5417C22.1667 11.315 28.3268 2.67971 38.0462 0.570092ZM16.3796 0.570092L17.6349 3.28241C15.8603 4.09601 14.2422 5.61321 13.0043 7.30589C11.6527 9.15418 10.7027 11.2823 10.5096 13.0662L10.4583 13.5399L10.9289 13.6139C14.8413 14.2296 17.8333 17.615 17.8333 21.7017C17.8333 26.666 13.8178 29.5 9.66833 29.5C4.91909 29.5 0.5 25.8818 0.5 19.5417C0.5 11.315 6.66014 2.67971 16.3796 0.570092Z" stroke="#C4BAAB"/>
</svg>
