<svg width="70" height="70" viewBox="0 0 70 70" fill="none" xmlns="http://www.w3.org/2000/svg">
<g opacity="0.5">
<path d="M35 0C15.6722 0 0 15.6722 0 35C0 54.3278 15.6722 70 35 70C54.3278 70 70 54.3278 70 35C70 15.6722 54.3278 0 35 0ZM32.7056 51.2037H31.4093V23.3333H16.5019V22.037H32.7056V51.2037ZM46.3685 33.7037C42.7907 33.7037 39.887 30.8 39.887 27.2222C39.887 23.6444 42.7907 20.7407 46.3685 20.7407C49.9463 20.7407 52.85 23.6444 52.85 27.2222C52.85 30.8 49.9463 33.7037 46.3685 33.7037Z" fill="white"/>
<path d="M46.3685 32.4075C49.2322 32.4075 51.5537 30.086 51.5537 27.2223C51.5537 24.3586 49.2322 22.0371 46.3685 22.0371C43.5048 22.0371 41.1833 24.3586 41.1833 27.2223C41.1833 30.086 43.5048 32.4075 46.3685 32.4075Z" fill="white"/>
</g>
</svg>
