<svg width="216" height="50" viewBox="0 0 216 50" fill="none" xmlns="http://www.w3.org/2000/svg">
<g clip-path="url(#clip0)">
<path d="M25 50C38.8071 50 50 38.8071 50 25C50 11.1929 38.8071 0 25 0C11.1929 0 0 11.1929 0 25C0 38.8071 11.1929 50 25 50Z" fill="#C4BAAB"/>
<g opacity="0.8">
<path opacity="0.4" d="M33.1204 24.0742C30.5648 24.0742 28.4907 22.0001 28.4907 19.4446C28.4907 16.889 30.5648 14.8149 33.1204 14.8149C35.6759 14.8149 37.75 16.889 37.75 19.4446C37.75 22.0001 35.6759 24.0742 33.1204 24.0742ZM33.1204 15.7409C31.0741 15.7409 29.4166 17.3983 29.4166 19.4446C29.4166 21.4909 31.0741 23.1483 33.1204 23.1483C35.1666 23.1483 36.8241 21.4909 36.8241 19.4446C36.8241 17.3983 35.1666 15.7409 33.1204 15.7409Z" fill="white"/>
</g>
<path d="M23.3611 36.5741H22.4352V16.6666H11.787V15.7407H23.3611V36.5741Z" fill="white"/>
<path d="M67.213 17.8794H77.4815V20.3238H73.7222V32.1201H70.9722V20.3238H67.213V17.8794Z" fill="black"/>
<path d="M79.2592 30.2036C77.8703 28.7962 77.1759 27.0554 77.1759 24.9999C77.1759 22.9443 77.8703 21.2036 79.2592 19.7962C80.6481 18.3888 82.4259 17.6851 84.6018 17.6851C86.7685 17.6851 88.5463 18.3888 89.9444 19.7962C91.3333 21.2036 92.0278 22.9443 92.0278 24.9999C92.0278 27.0554 91.3333 28.7962 89.9444 30.2036C88.5555 31.611 86.7778 32.3147 84.6018 32.3147C82.4259 32.324 80.6481 31.6202 79.2592 30.2036ZM81.2592 21.5462C80.3611 22.4999 79.9166 23.648 79.9166 24.9999C79.9166 26.3517 80.3611 27.5091 81.2592 28.4536C82.1574 29.4073 83.2685 29.8795 84.5926 29.8795C85.9166 29.8795 87.037 29.4073 87.9259 28.4536C88.8241 27.5091 89.2685 26.3517 89.2685 24.9999C89.2685 23.648 88.8241 22.4906 87.9259 21.5462C87.0278 20.5925 85.9166 20.1202 84.5926 20.1202C83.2685 20.1202 82.1574 20.5925 81.2592 21.5462Z" fill="black"/>
<path d="M102.843 32.1201L96.6018 25.1201V32.1201H93.8518V17.8794H96.6018V23.5738L101.991 17.8794H105.611L99.3426 24.3887L106.361 32.1201H102.843Z" fill="black"/>
<path d="M109.815 32.1201H106.944L113.046 17.8794H114.981L121.083 32.1201H118.213L116.87 28.972H111.157L109.815 32.1201ZM114.009 22.3146L112.204 26.5275H115.824L114.009 22.3146Z" fill="black"/>
<path d="M125.639 25.8146H124.639V32.1201H121.889V17.8794H127.074C128.38 17.8794 129.417 18.2312 130.185 18.935C131.028 19.7312 131.444 20.7035 131.444 21.8424C131.444 22.9812 131.028 23.9535 130.185 24.7498C129.778 25.1294 129.306 25.4072 128.759 25.5831L134.083 32.1109H130.685L125.639 25.8146ZM124.639 23.3701H126.917C127.583 23.3701 128.046 23.2312 128.296 22.9442C128.565 22.6479 128.704 22.2868 128.704 21.8701C128.704 21.435 128.565 21.0738 128.296 20.7683C128.028 20.472 127.565 20.3238 126.917 20.3238H124.639V23.3701Z" fill="black"/>
<path d="M142.343 17.8794H152.611V20.3238H148.852V32.1201H146.102V20.3238H142.343V17.8794Z" fill="black"/>
<path d="M153.954 32.1201H151.083L157.185 17.8794H159.12L165.222 32.1201H162.352L161.009 28.972H155.296L153.954 32.1201ZM158.148 22.3146L156.343 26.5275H159.963L158.148 22.3146Z" fill="black"/>
<path d="M164.102 17.8794H174.37V20.3238H170.611V32.1201H167.861V20.3238H164.102V17.8794Z" fill="black"/>
<path d="M174.167 17.8794H184.435V20.3238H180.676V32.1201H177.926V20.3238H174.167V17.8794Z" fill="black"/>
<path d="M186.833 30.2036C185.444 28.7962 184.75 27.0554 184.75 24.9999C184.75 22.9443 185.444 21.2036 186.833 19.7962C188.222 18.3888 190 17.6851 192.176 17.6851C194.343 17.6851 196.12 18.3888 197.519 19.7962C198.907 21.2036 199.602 22.9443 199.602 24.9999C199.602 27.0554 198.907 28.7962 197.519 30.2036C196.13 31.611 194.352 32.3147 192.176 32.3147C190 32.324 188.222 31.6202 186.833 30.2036ZM188.833 21.5462C187.935 22.4999 187.491 23.648 187.491 24.9999C187.491 26.3517 187.935 27.5091 188.833 28.4536C189.731 29.4073 190.843 29.8795 192.167 29.8795C193.491 29.8795 194.611 29.4073 195.5 28.4536C196.398 27.5091 196.843 26.3517 196.843 24.9999C196.843 23.648 196.398 22.4906 195.5 21.5462C194.602 20.5925 193.491 20.1202 192.167 20.1202C190.843 20.1202 189.731 20.5925 188.833 21.5462Z" fill="black"/>
<path d="M202.898 30.2036C201.509 28.7962 200.815 27.0554 200.815 24.9999C200.815 22.9443 201.509 21.2036 202.898 19.7962C204.287 18.3888 206.065 17.6851 208.241 17.6851C210.407 17.6851 212.185 18.3888 213.583 19.7962C214.972 21.2036 215.667 22.9443 215.667 24.9999C215.667 27.0554 214.972 28.7962 213.583 30.2036C212.194 31.611 210.417 32.3147 208.241 32.3147C206.065 32.324 204.287 31.6202 202.898 30.2036ZM204.898 21.5462C204 22.4999 203.556 23.648 203.556 24.9999C203.556 26.3517 204 27.5091 204.898 28.4536C205.796 29.4073 206.907 29.8795 208.231 29.8795C209.556 29.8795 210.676 29.4073 211.565 28.4536C212.463 27.5091 212.907 26.3517 212.907 24.9999C212.907 23.648 212.463 22.4906 211.565 21.5462C210.667 20.5925 209.556 20.1202 208.231 20.1202C206.907 20.1202 205.796 20.5925 204.898 21.5462Z" fill="black"/>
</g>
<defs>
<clipPath id="clip0">
<rect width="215.657" height="50" fill="white"/>
</clipPath>
</defs>
</svg>
