<svg fill="none" height="80" viewBox="0 0 140 80" width="140" xmlns="http://www.w3.org/2000/svg"><g fill="#000"><path d="m0 66.1973h9.68377v2.3052h-3.54518v11.1246h-2.5934v-11.1246h-3.54519z"/><path d="m11.3603 77.8198c-1.3098-1.3273-1.9647-2.9689-1.9647-4.9074s.6549-3.5801 1.9647-4.9073c1.3098-1.3273 2.9863-1.9909 5.0384-1.9909 2.0432 0 3.7198.6636 5.0383 1.9909 1.3098 1.3272 1.9647 2.9688 1.9647 4.9073s-.6549 3.5801-1.9647 4.9074-2.9863 1.9909-5.0383 1.9909c-2.0521.0087-3.7286-.6549-5.0384-1.9909zm1.8861-8.1644c-.847.8994-1.2661 1.9822-1.2661 3.257 0 1.2749.4191 2.3664 1.2661 3.2571.847.8994 1.8949 1.3447 3.1435 1.3447 1.2487 0 2.3053-.4453 3.1435-1.3447.847-.8907 1.2662-1.9822 1.2662-3.2571 0-1.2748-.4192-2.3663-1.2662-3.257-.847-.8994-1.8948-1.3447-3.1435-1.3447-1.2486 0-2.2965.4453-3.1435 1.3447z"/><path d="m33.6007 79.6271-5.8853-6.6014v6.6014h-2.5935v-13.4298h2.5935v5.3701l5.082-5.3701h3.4142l-5.9116 6.1386 6.6189 7.2912z"/><path d="m40.1759 79.6271h-2.7069l5.7543-13.4298h1.825l5.7544 13.4298h-2.7069l-1.2661-2.9689h-5.3877zm3.9556-9.2472-1.7028 3.973h3.4142z"/><path d="m55.0988 73.6806h-.943v5.9465h-2.5934v-13.4298h4.8899c1.2312 0 2.2092.3318 2.9339.9954.7947.751 1.1876 1.6678 1.1876 2.7419 0 1.074-.3929 1.9909-1.1876 2.7418-.3842.358-.8295.62-1.3447.7859l5.0209 6.156h-3.2046zm-.943-2.3053h2.1481c.6287 0 1.0652-.1309 1.301-.4016.2532-.2795.3842-.62.3842-1.0129 0-.4104-.131-.751-.3842-1.0392-.2532-.2794-.6898-.4191-1.301-.4191h-2.1481z"/><path d="m70.8514 66.1973h9.6838v2.3052h-3.5452v11.1246h-2.5934v-11.1246h-3.5452z"/><path d="m81.8013 79.6271h-2.7069l5.7543-13.4298h1.825l5.7544 13.4298h-2.7069l-1.2661-2.9689h-5.3877zm3.9556-9.2472-1.7028 3.973h3.4142z"/><path d="m91.3716 66.1973h9.6834v2.3052h-3.5449v11.1246h-2.5934v-11.1246h-3.5451z"/><path d="m100.863 66.1973h9.684v2.3052h-3.545v11.1246h-2.594v-11.1246h-3.545z"/><path d="m112.809 77.8198c-1.31-1.3273-1.965-2.9689-1.965-4.9074s.655-3.5801 1.965-4.9073c1.309-1.3273 2.986-1.9909 5.038-1.9909 2.043 0 3.72.6636 5.038 1.9909 1.31 1.3272 1.965 2.9688 1.965 4.9073s-.655 3.5801-1.965 4.9074c-1.309 1.3273-2.986 1.9909-5.038 1.9909-2.052.0087-3.729-.6549-5.038-1.9909zm1.886-8.1644c-.847.8994-1.266 1.9822-1.266 3.257 0 1.2749.419 2.3664 1.266 3.2571.847.8994 1.895 1.3447 3.143 1.3447 1.249 0 2.305-.4453 3.144-1.3447.847-.8907 1.266-1.9822 1.266-3.2571 0-1.2748-.419-2.3663-1.266-3.257-.847-.8994-1.895-1.3447-3.144-1.3447-1.248 0-2.296.4453-3.143 1.3447z"/><path d="m127.959 77.8198c-1.31-1.3273-1.965-2.9689-1.965-4.9074s.655-3.5801 1.965-4.9073c1.309-1.3273 2.986-1.9909 5.038-1.9909 2.043 0 3.72.6636 5.038 1.9909 1.31 1.3272 1.965 2.9688 1.965 4.9073s-.655 3.5801-1.965 4.9074c-1.309 1.3273-2.986 1.9909-5.038 1.9909-2.052.0087-3.729-.6549-5.038-1.9909zm1.886-8.1644c-.847.8994-1.266 1.9822-1.266 3.257 0 1.2749.419 2.3664 1.266 3.2571.847.8994 1.895 1.3447 3.143 1.3447 1.249 0 2.305-.4453 3.144-1.3447.847-.8907 1.266-1.9822 1.266-3.2571 0-1.2748-.419-2.3663-1.266-3.257-.847-.8994-1.895-1.3447-3.144-1.3447-1.248 0-2.296.4453-3.143 1.3447z"/></g><path d="m69.7861 47.1527c13.0208 0 23.5763-10.5555 23.5763-23.5763 0-13.0209-10.5555-23.5764-23.5763-23.5764-13.0209 0-23.5764 10.5555-23.5764 23.5764 0 13.0208 10.5555 23.5763 23.5764 23.5763z" fill="#c4baab"/><path d="m77.444 22.7032c-2.41 0-4.366-1.956-4.366-4.366s1.956-4.366 4.366-4.366 4.366 1.956 4.366 4.366-1.956 4.366-4.366 4.366zm0-7.8588c-1.9298 0-3.4928 1.563-3.4928 3.4928s1.563 3.4928 3.4928 3.4928 3.4928-1.563 3.4928-3.4928-1.563-3.4928-3.4928-3.4928z" fill="#fff" opacity=".32"/><path d="m68.2405 34.4912h-.8732v-18.7738h-10.0418v-.8732h10.915z" fill="#fff"/></svg>