<svg width="16" height="16" viewBox="0 0 16 16" fill="none" xmlns="http://www.w3.org/2000/svg">
<path d="M12.25 0H3.75C1.68 0 0 1.68 0 3.75V12.25C0 14.32 1.68 16 3.75 16H12.25C14.32 16 16 14.32 16 12.25V3.75C16 1.68 14.32 0 12.25 0ZM8 11.5C6.0675 11.5 4.5 9.9325 4.5 8C4.5 6.0675 6.0675 4.5 8 4.5C9.9325 4.5 11.5 6.0675 11.5 8C11.5 9.9325 9.9325 11.5 8 11.5ZM12.375 4.75C11.7525 4.75 11.25 4.2475 11.25 3.625C11.25 3.0025 11.7525 2.5 12.375 2.5C12.9975 2.5 13.5 3.0025 13.5 3.625C13.5 4.2475 12.9975 4.75 12.375 4.75Z" fill="black"/>
</svg>
